<svg id="menu" xmlns="http://www.w3.org/2000/svg" width="43.309" height="45.332" viewBox="0 0 43.309 45.332">
  <path id="Path_1" data-name="Path 1" d="M41.5,127.9H1.8c-1,0-1.8-1.172-1.8-2.615s.808-2.615,1.8-2.615H41.5c1,0,1.8,1.172,1.8,2.615S42.5,127.9,41.5,127.9Zm0,0" transform="translate(0 -102.617)" fill="#efe5db"/>
  <path id="Path_2" data-name="Path 2" d="M41.5,5.231H1.8c-1,0-1.8-1.172-1.8-2.615S.808,0,1.8,0H41.5c1,0,1.8,1.172,1.8,2.615S42.5,5.231,41.5,5.231Zm0,0" fill="#efe5db"/>
  <path id="Path_3" data-name="Path 3" d="M41.5,250.563H1.8c-1,0-1.8-1.172-1.8-2.615s.808-2.615,1.8-2.615H41.5c1,0,1.8,1.172,1.8,2.615S42.5,250.563,41.5,250.563Zm0,0" transform="translate(0 -205.231)" fill="#efe5db"/>
</svg>
